<svg  id="byjus" xmlns="http://www.w3.org/2000/svg" xmlns:xlink="http://www.w3.org/1999/xlink" 
width="200" height="200" preserveAspectRatio="xMidYMid" viewBox="0 0 256 302">
<path fill="#823589" opacity="1.000000" stroke="none" 
	d="
M1.000000,88.000000 
	C1.000000,58.666672 1.000000,29.833344 1.000000,1.000012 
	C75.999977,1.000008 150.999954,1.000008 225.999954,1.000004 
	C225.999969,75.999969 225.999969,150.999939 225.999985,225.999939 
	C151.000046,225.999954 76.000092,225.999954 1.000068,225.999969 
	C1.000000,180.166672 1.000000,134.333328 1.000000,88.000000 
M88.185471,183.407043 
	C88.860664,185.633469 89.404961,187.910294 90.238899,190.075592 
	C91.866936,194.302750 98.935814,199.086349 102.661583,197.782196 
	C113.758377,193.897919 125.013237,190.414276 136.338226,187.245468 
	C151.219284,183.081650 162.025681,171.329468 163.511353,155.759888 
	C164.716888,143.126450 159.225281,128.555420 144.845810,120.889633 
	C143.575226,120.212280 142.395157,119.365173 141.236176,118.636597 
	C146.500870,105.742096 145.263901,93.832077 135.608749,84.144096 
	C126.392128,74.896149 114.979324,73.042931 102.429787,77.311806 
	C94.420929,80.036125 86.175941,82.100410 77.971832,84.207626 
	C68.400993,86.665878 61.366684,90.387505 64.983780,102.633141 
	C72.843872,129.243393 80.372757,155.951462 88.185471,183.407043 
M50.066036,53.128254 
	C50.488415,59.426579 51.684002,60.327744 57.565132,59.117756 
	C59.163532,58.788902 60.870888,59.031487 62.505577,58.828915 
	C66.660423,58.314037 71.079399,57.841648 72.778442,53.218220 
	C74.392532,48.825939 72.709015,45.144424 68.963531,42.521088 
	C74.174484,34.350113 70.966759,27.952328 61.545120,27.325602 
	C59.397720,27.182756 57.231716,27.337805 55.080387,27.231768 
	C51.470295,27.053829 49.982716,28.733223 50.039242,32.302193 
	C50.144279,38.934212 50.066841,45.569122 50.066036,53.128254 
M175.603348,35.475128 
	C175.709335,31.068228 173.184769,28.244747 168.281433,27.286263 
	C163.672424,26.385315 158.857224,28.566568 157.310364,32.256104 
	C155.639389,36.241642 156.895370,40.352119 160.638733,42.669392 
	C163.270538,44.298565 166.083160,45.643211 168.661148,47.347668 
	C169.570053,47.948586 170.782013,49.600193 170.525375,50.142212 
	C169.983566,51.286449 168.474075,52.848835 167.523514,52.745804 
	C165.359818,52.511288 163.322617,51.278744 161.177826,50.640640 
	C159.774490,50.223125 158.272797,50.136234 156.815155,49.901253 
	C156.950470,51.538998 156.512131,53.622303 157.356445,54.709370 
	C158.602631,56.313824 160.722702,57.272202 162.539764,58.393719 
	C166.280487,60.702557 172.651581,59.012081 175.365875,55.053017 
	C177.986710,51.230270 177.263168,45.984310 173.309433,43.027866 
	C171.079193,41.360172 168.270355,40.486404 165.917160,38.955288 
	C164.543777,38.061684 163.554993,36.576996 162.393173,35.358238 
	C162.756622,34.773590 163.120071,34.188942 163.483521,33.604294 
	C166.028610,34.288330 168.556137,35.051384 171.126190,35.623234 
	C172.420776,35.911282 173.792557,35.852425 175.603348,35.475128 
M127.748985,32.033470 
	C126.681694,30.677944 125.614395,29.322420 124.547104,27.966896 
	C123.674026,29.509405 122.148323,31.011183 122.049034,32.601986 
	C121.739174,37.566689 121.835701,42.570011 122.021088,47.549187 
	C122.283401,54.594673 126.685562,58.783627 133.440857,58.694511 
	C139.899323,58.609314 143.875015,54.520626 144.127274,47.412998 
	C144.298111,42.599411 144.414658,37.757950 144.060028,32.965618 
	C143.934692,31.271755 142.341232,29.686531 141.418045,28.051702 
	C140.360565,29.784334 138.590317,31.438328 138.388733,33.265388 
	C137.917557,37.536293 138.250046,41.891331 138.160080,46.210274 
	C138.088486,49.647224 137.331940,52.357136 132.866074,52.311462 
	C128.221481,52.263958 127.950562,49.099407 127.814720,45.900562 
	C127.631561,41.587311 127.760208,37.260815 127.748985,32.033470 
M98.704208,33.394798 
	C98.272545,31.577425 97.840881,29.760052 97.409225,27.942677 
	C95.936592,28.918488 94.171524,29.640022 93.054321,30.924889 
	C90.953407,33.341110 89.226494,36.082531 86.949615,39.234879 
	C84.660248,35.479767 83.149597,32.498333 81.124901,29.920668 
	C80.275963,28.839865 78.337921,28.614532 76.895020,28.000280 
	C76.520256,29.452414 75.771843,30.935169 75.887550,32.347111 
	C75.982155,33.501637 77.106781,34.572144 77.776039,35.679123 
	C81.172676,41.297367 85.749817,46.371532 84.698624,53.838955 
	C84.491463,55.310528 86.530624,57.098316 87.533821,58.740273 
	C88.482422,57.073402 90.335236,55.337776 90.214668,53.752201 
	C89.809082,48.418434 91.464775,44.021923 94.612625,39.907806 
	C96.021423,38.066559 97.101173,35.973549 98.704208,33.394798 
M96.854561,50.728699 
	C98.220055,56.324833 101.856094,59.227940 106.968735,58.804123 
	C112.221344,58.368706 115.689560,54.914600 115.940193,49.292194 
	C116.191376,43.657688 116.228882,37.992886 115.905022,32.367554 
	C115.820007,30.890961 114.048386,29.511463 113.051308,28.087378 
	C112.078888,29.569626 110.387924,30.996117 110.267769,32.544495 
	C109.896339,37.331196 110.355003,42.181610 109.997803,46.970470 
	C109.865471,48.744568 108.722168,51.337898 107.378738,51.861645 
	C106.167709,52.333771 103.591217,50.894413 102.434494,49.579113 
	C100.124458,46.952393 98.538841,46.748627 96.854561,50.728699 
M151.793427,38.211414 
	C152.611206,35.793324 153.617401,33.414577 154.135391,30.933895 
	C154.297028,30.159771 153.341446,28.696415 152.530563,28.301384 
	C151.693512,27.893591 150.161926,28.036732 149.367020,28.576393 
	C146.669266,30.407875 147.904572,36.969231 151.793427,38.211414 
z"/>
<path fill="#F7F5F8" opacity="1.000000" stroke="none" 
	d="
M88.111252,183.013306 
	C80.372757,155.951462 72.843872,129.243393 64.983780,102.633141 
	C61.366684,90.387505 68.400993,86.665878 77.971832,84.207626 
	C86.175941,82.100410 94.420929,80.036125 102.429787,77.311806 
	C114.979324,73.042931 126.392128,74.896149 135.608749,84.144096 
	C145.263901,93.832077 146.500870,105.742096 141.236176,118.636597 
	C142.395157,119.365173 143.575226,120.212280 144.845810,120.889633 
	C159.225281,128.555420 164.716888,143.126450 163.511353,155.759888 
	C162.025681,171.329468 151.219284,183.081650 136.338226,187.245468 
	C125.013237,190.414276 113.758377,193.897919 102.661583,197.782196 
	C98.935814,199.086349 91.866936,194.302750 90.238899,190.075592 
	C89.404961,187.910294 88.860664,185.633469 88.111252,183.013306 
M70.915489,98.970024 
	C79.166237,127.482239 87.397507,156.000107 95.684853,184.501694 
	C97.263908,189.932312 99.120758,190.882355 104.480003,189.373825 
	C109.437492,187.978378 114.434441,186.699905 119.327377,185.104263 
	C125.257576,183.170349 131.096786,180.957489 137.736801,179.020020 
	C139.133240,178.615738 140.691956,178.484116 141.900757,177.764587 
	C152.815704,171.267456 158.030197,161.591156 156.692551,148.963028 
	C155.441193,137.149689 148.704544,129.186676 137.672394,124.926239 
	C135.289261,124.005905 132.727341,123.548561 129.985184,122.806946 
	C131.240082,121.183578 132.258026,119.918648 133.220581,118.612869 
	C138.285400,111.742081 139.048477,103.848587 135.779022,96.530029 
	C128.408661,80.031769 116.192604,80.046219 102.247833,84.708138 
	C101.353348,85.007172 100.573380,85.684875 99.670815,85.917953 
	C91.417809,88.049149 83.064575,89.852722 74.952202,92.420456 
	C73.182930,92.980476 72.258522,96.209694 70.915489,98.970024 
z"/>
<path fill="#EFEBEE" opacity="1.000000" stroke="none" 
	d="
M50.065704,52.665543 
	C50.066841,45.569122 50.144279,38.934212 50.039242,32.302193 
	C49.982716,28.733223 51.470295,27.053829 55.080387,27.231768 
	C57.231716,27.337805 59.397720,27.182756 61.545120,27.325602 
	C70.966759,27.952328 74.174484,34.350113 68.963531,42.521088 
	C72.709015,45.144424 74.392532,48.825939 72.778442,53.218220 
	C71.079399,57.841648 66.660423,58.314037 62.505577,58.828915 
	C60.870888,59.031487 59.163532,58.788902 57.565132,59.117756 
	C51.684002,60.327744 50.488415,59.426579 50.065704,52.665543 
M56.059216,39.647774 
	C56.059269,42.131023 56.053829,44.614285 56.060474,47.097515 
	C56.076336,53.024990 56.633442,53.635967 62.664280,52.695084 
	C64.122345,52.467609 65.365211,50.860687 66.707031,49.888100 
	C65.593285,48.885044 64.417671,47.941410 63.382172,46.863205 
	C62.208294,45.640900 60.732765,44.438625 60.241756,42.946774 
	C60.005100,42.227734 61.736370,40.872475 62.557571,39.790909 
	C63.612930,38.400940 64.649239,36.996502 65.693748,35.598297 
	C64.055847,34.778976 62.490009,33.685051 60.756481,33.230095 
	C59.447769,32.886631 57.924583,33.360405 56.059170,33.504177 
	C56.059170,35.461079 56.059170,37.082989 56.059216,39.647774 
z"/>
<path fill="#EEEAEE" opacity="1.000000" stroke="none" 
	d="
M175.366394,35.712784 
	C173.792557,35.852425 172.420776,35.911282 171.126190,35.623234 
	C168.556137,35.051384 166.028610,34.288330 163.483521,33.604294 
	C163.120071,34.188942 162.756622,34.773590 162.393173,35.358238 
	C163.554993,36.576996 164.543777,38.061684 165.917160,38.955288 
	C168.270355,40.486404 171.079193,41.360172 173.309433,43.027866 
	C177.263168,45.984310 177.986710,51.230270 175.365875,55.053017 
	C172.651581,59.012081 166.280487,60.702557 162.539764,58.393719 
	C160.722702,57.272202 158.602631,56.313824 157.356445,54.709370 
	C156.512131,53.622303 156.950470,51.538998 156.815155,49.901253 
	C158.272797,50.136234 159.774490,50.223125 161.177826,50.640640 
	C163.322617,51.278744 165.359818,52.511288 167.523514,52.745804 
	C168.474075,52.848835 169.983566,51.286449 170.525375,50.142212 
	C170.782013,49.600193 169.570053,47.948586 168.661148,47.347668 
	C166.083160,45.643211 163.270538,44.298565 160.638733,42.669392 
	C156.895370,40.352119 155.639389,36.241642 157.310364,32.256104 
	C158.857224,28.566568 163.672424,26.385315 168.281433,27.286263 
	C173.184769,28.244747 175.709335,31.068228 175.366394,35.712784 
z"/>
<path fill="#EEEAEE" opacity="1.000000" stroke="none" 
	d="
M127.752014,32.486736 
	C127.760208,37.260815 127.631561,41.587311 127.814720,45.900562 
	C127.950562,49.099407 128.221481,52.263958 132.866074,52.311462 
	C137.331940,52.357136 138.088486,49.647224 138.160080,46.210274 
	C138.250046,41.891331 137.917557,37.536293 138.388733,33.265388 
	C138.590317,31.438328 140.360565,29.784334 141.418045,28.051704 
	C142.341232,29.686531 143.934692,31.271755 144.060028,32.965618 
	C144.414658,37.757950 144.298111,42.599411 144.127274,47.412998 
	C143.875015,54.520626 139.899323,58.609314 133.440857,58.694511 
	C126.685562,58.783627 122.283401,54.594673 122.021088,47.549187 
	C121.835701,42.570011 121.739174,37.566689 122.049034,32.601986 
	C122.148323,31.011183 123.674026,29.509405 124.547104,27.966896 
	C125.614395,29.322420 126.681694,30.677944 127.752014,32.486736 
z"/>
<path fill="#F0ECEF" opacity="1.000000" stroke="none" 
	d="
M98.517227,33.694794 
	C97.101173,35.973549 96.021423,38.066559 94.612625,39.907806 
	C91.464775,44.021923 89.809082,48.418434 90.214668,53.752201 
	C90.335236,55.337776 88.482422,57.073402 87.533821,58.740273 
	C86.530624,57.098316 84.491463,55.310528 84.698624,53.838955 
	C85.749817,46.371532 81.172676,41.297367 77.776039,35.679123 
	C77.106781,34.572144 75.982155,33.501637 75.887550,32.347111 
	C75.771843,30.935169 76.520256,29.452414 76.895020,28.000278 
	C78.337921,28.614532 80.275963,28.839865 81.124901,29.920668 
	C83.149597,32.498333 84.660248,35.479767 86.949615,39.234879 
	C89.226494,36.082531 90.953407,33.341110 93.054321,30.924889 
	C94.171524,29.640022 95.936592,28.918488 97.409225,27.942677 
	C97.840881,29.760052 98.272545,31.577425 98.517227,33.694794 
z"/>
<path fill="#EEE9ED" opacity="1.000000" stroke="none" 
	d="
M96.879105,50.349930 
	C98.538841,46.748627 100.124458,46.952393 102.434494,49.579113 
	C103.591217,50.894413 106.167709,52.333771 107.378738,51.861645 
	C108.722168,51.337898 109.865471,48.744568 109.997803,46.970470 
	C110.355003,42.181610 109.896339,37.331196 110.267769,32.544495 
	C110.387924,30.996117 112.078888,29.569626 113.051308,28.087376 
	C114.048386,29.511463 115.820007,30.890961 115.905022,32.367554 
	C116.228882,37.992886 116.191376,43.657688 115.940193,49.292194 
	C115.689560,54.914600 112.221344,58.368706 106.968735,58.804123 
	C101.856094,59.227940 98.220055,56.324833 96.879105,50.349930 
z"/>
<path fill="#EEE8ED" opacity="1.000000" stroke="none" 
	d="
M151.461136,38.377731 
	C147.904572,36.969231 146.669266,30.407875 149.367020,28.576393 
	C150.161926,28.036732 151.693512,27.893591 152.530563,28.301384 
	C153.341446,28.696415 154.297028,30.159771 154.135391,30.933895 
	C153.617401,33.414577 152.611206,35.793324 151.461136,38.377731 
z"/>
<path fill="#823689" opacity="1.000000" stroke="none" 
	d="
M136.975372,178.865326 
	C131.096786,180.957489 125.257576,183.170349 119.327377,185.104263 
	C114.434441,186.699905 109.437492,187.978378 104.480003,189.373825 
	C99.120758,190.882355 97.263908,189.932312 95.684853,184.501694 
	C87.397507,156.000107 79.166237,127.482239 71.347122,98.575668 
	C80.441917,95.863113 89.127365,93.624542 97.762573,91.206520 
	C108.524582,88.192955 117.455391,90.942642 123.418724,99.291512 
	C129.201294,107.387283 129.157639,117.102753 123.340492,125.908173 
	C122.670639,126.922127 122.189255,128.060593 121.470001,129.427261 
	C123.110863,129.926529 124.201340,130.292084 125.309860,130.590637 
	C145.854065,136.123734 152.919205,158.668427 139.294479,175.137680 
	C138.370117,176.255035 137.741516,177.617065 136.975372,178.865326 
z"/>
<path fill="#4F235E" opacity="1.000000" stroke="none" 
	d="
M137.356079,178.942657 
	C137.741516,177.617065 138.370117,176.255035 139.294479,175.137680 
	C152.919205,158.668427 145.854065,136.123734 125.309860,130.590637 
	C124.201340,130.292084 123.110863,129.926529 121.470001,129.427261 
	C122.189255,128.060593 122.670639,126.922127 123.340492,125.908173 
	C129.157639,117.102753 129.201294,107.387283 123.418724,99.291512 
	C117.455391,90.942642 108.524582,88.192955 97.762573,91.206520 
	C89.127365,93.624542 80.441917,95.863113 71.361885,98.195450 
	C72.258522,96.209694 73.182930,92.980476 74.952202,92.420456 
	C83.064575,89.852722 91.417809,88.049149 99.670815,85.917953 
	C100.573380,85.684875 101.353348,85.007172 102.247833,84.708138 
	C116.192604,80.046219 128.408661,80.031769 135.779022,96.530029 
	C139.048477,103.848587 138.285400,111.742081 133.220581,118.612869 
	C132.258026,119.918648 131.240082,121.183578 129.985184,122.806946 
	C132.727341,123.548561 135.289261,124.005905 137.672394,124.926239 
	C148.704544,129.186676 155.441193,137.149689 156.692551,148.963028 
	C158.030197,161.591156 152.815704,171.267456 141.900757,177.764587 
	C140.691956,178.484116 139.133240,178.615738 137.356079,178.942657 
z"/>
<path fill="#873C8E" opacity="1.000000" stroke="none" 
	d="
M56.059193,39.176334 
	C56.059170,37.082989 56.059170,35.461079 56.059170,33.504177 
	C57.924583,33.360405 59.447769,32.886631 60.756481,33.230095 
	C62.490009,33.685051 64.055847,34.778976 65.693748,35.598297 
	C64.649239,36.996502 63.612930,38.400940 62.557571,39.790909 
	C61.736370,40.872475 60.005100,42.227734 60.241756,42.946774 
	C60.732765,44.438625 62.208294,45.640900 63.382172,46.863205 
	C64.417671,47.941410 65.593285,48.885044 66.707031,49.888100 
	C65.365211,50.860687 64.122345,52.467609 62.664280,52.695084 
	C56.633442,53.635967 56.076336,53.024990 56.060474,47.097515 
	C56.053829,44.614285 56.059269,42.131023 56.059193,39.176334 
z"/>
</svg>