<svg id="byjusWhiteHat" xmlns="http://www.w3.org/2000/svg" xmlns:xlink="http://www.w3.org/1999/xlink"
width="200" height="400" preserveAspectRatio="xMidYMid" viewBox="0 0 256 302">
<path fill="#FEFEFE" opacity="1.000000" stroke="none" 
	d="
M156.000000,199.000000 
	C104.000000,199.000000 52.500008,199.000000 1.000007,199.000000 
	C1.000005,133.000000 1.000005,67.000015 1.000002,1.000016 
	C85.666656,1.000010 170.333313,1.000010 254.999969,1.000005 
	C254.999985,66.999985 254.999985,132.999969 255.000000,198.999969 
	C222.166672,199.000000 189.333328,199.000000 156.000000,199.000000 
M103.304741,143.776306 
	C108.750145,155.311661 113.979813,166.957077 119.773430,178.314804 
	C121.494423,181.688614 124.301811,185.053635 127.477440,187.033798 
	C135.712036,192.168442 149.198486,188.014832 152.339081,174.392654 
	C154.311371,170.374069 156.342163,166.383011 158.246490,162.332458 
	C170.963623,135.282867 183.724213,108.253265 196.311508,81.143280 
	C200.300095,72.552834 196.917603,63.842529 188.518036,59.823975 
	C180.144531,55.817894 170.680038,58.990894 166.603683,67.431808 
	C161.187759,78.646530 156.035309,89.988167 150.680145,101.232635 
	C145.543518,112.018257 140.292526,122.749405 134.569504,132.926498 
	C129.478912,122.418579 124.388336,111.910652 119.062325,100.786209 
	C116.852539,93.162285 112.089745,88.403282 103.929123,87.925323 
	C95.608589,87.438019 90.339157,91.579155 86.975586,99.096870 
	C81.770592,110.730194 76.137878,122.172165 70.154411,133.185242 
	C64.807831,121.914436 59.620598,110.563477 54.016876,99.422005 
	C52.350830,96.109528 50.017200,92.715561 47.108086,90.534554 
	C41.479034,86.314400 32.579678,87.103752 27.548216,91.400497 
	C21.549015,96.523666 20.024294,104.345276 23.762259,112.318634 
	C34.276165,134.745590 44.847961,157.145691 55.491104,179.511581 
	C58.676395,186.205261 64.119774,189.393478 71.606773,188.946060 
	C78.471024,188.535873 83.095261,185.087219 85.604065,178.732407 
	C86.439697,176.615738 87.242981,174.486313 88.283546,171.675568 
	C89.125931,170.489258 90.150391,169.391983 90.781105,168.102173 
	C94.835106,159.811752 98.802879,151.479156 103.304741,143.776306 
M213.100418,49.620689 
	C214.149399,46.753330 216.692001,43.391544 215.940170,41.120289 
	C214.314667,36.209721 216.143265,32.613430 218.414673,29.066816 
	C222.717941,22.347576 221.145432,15.642348 218.849945,8.951508 
	C218.452850,7.794034 216.183029,6.181364 215.319809,6.459544 
	C209.691345,8.273377 203.449066,9.245796 199.820541,14.735681 
	C196.448776,19.837065 194.116486,25.373045 187.206863,27.671129 
	C184.615616,28.532953 183.641663,34.257492 181.930359,37.765018 
	C184.101562,38.627010 186.283615,39.463184 188.436584,40.368553 
	C188.997635,40.604496 189.468002,41.056133 190.298553,41.628056 
	C188.942520,44.098083 187.519928,46.334927 186.472488,48.735458 
	C185.881607,50.089645 185.908432,51.713360 185.657013,53.215668 
	C187.022202,52.783161 188.387390,52.350651 190.043106,51.826099 
	C191.619858,53.535381 193.659851,55.746841 196.355286,58.668816 
	C198.488556,55.192745 200.562149,51.813911 202.954254,47.916092 
	C205.449554,50.233067 207.513916,52.149902 209.851227,54.320183 
	C211.050232,52.635117 211.897171,51.444820 213.100418,49.620689 
M75.500000,65.069550 
	C104.891304,65.069550 134.282608,65.069550 163.673904,65.069550 
	C163.863388,64.369186 164.052887,63.668819 164.242371,62.968452 
	C162.807114,62.327141 161.372986,61.128254 159.936417,61.125298 
	C112.491226,61.027771 65.045792,61.044781 17.600393,61.045139 
	C17.267452,61.045143 16.814342,60.908089 16.621593,61.073307 
	C15.579926,61.966228 14.602754,62.934391 13.603347,63.876617 
	C13.944399,64.274277 14.285452,64.671928 14.626504,65.069588 
	C34.584335,65.069588 54.542168,65.069588 75.500000,65.069550 
M16.444485,36.979366 
	C15.395026,37.142998 14.345568,37.306629 13.152092,37.492718 
	C14.098512,41.427589 15.281037,44.940380 15.725087,48.544167 
	C16.285357,53.091148 18.174425,54.838310 22.713177,53.103638 
	C23.344805,51.027710 23.987684,48.914810 25.008942,45.558319 
	C26.032196,48.985409 26.667549,51.113335 27.695719,54.556892 
	C29.894945,53.345390 32.832581,52.730377 33.388691,51.231674 
	C35.022972,46.827335 35.711571,42.072086 36.882214,36.966873 
	C34.691875,37.076344 33.122200,37.154793 31.695629,37.226093 
	C31.020731,39.695347 30.466726,41.722290 29.648952,44.714287 
	C28.817165,41.499901 28.255039,39.327595 27.640558,36.952969 
	C25.703747,37.056366 24.109650,37.141468 22.559469,37.224228 
	C21.912287,39.851032 21.352369,42.123631 20.872936,44.069565 
	C19.656876,41.691212 18.458563,39.347576 16.444485,36.979366 
M103.572029,36.973663 
	C98.752365,36.400024 101.124321,40.560055 99.820343,42.685783 
	C98.426201,42.685783 96.860344,42.685783 95.218895,42.685783 
	C94.949799,40.726818 94.710838,38.987247 94.427246,36.922764 
	C92.625519,37.056747 91.074219,37.172108 89.629822,37.279518 
	C89.629822,42.942863 89.629822,48.144321 89.629822,53.730072 
	C91.613129,53.551212 93.153099,53.412334 94.584839,53.283218 
	C94.830933,51.101017 95.013351,49.483490 95.222740,47.626770 
	C97.619148,47.451576 100.317932,46.251648 100.304314,50.140911 
	C100.288651,54.615551 102.882568,53.717243 105.952141,53.240269 
	C105.952141,49.214272 106.094772,45.421375 105.883797,41.648254 
	C105.796165,40.081028 104.953423,38.556026 103.572029,36.973663 
M41.246662,36.012337 
	C40.250931,36.758503 38.436523,37.460281 38.393269,38.258087 
	C38.126652,43.175762 38.259464,48.115097 38.259464,53.350235 
	C40.099758,53.350235 41.469799,53.350235 42.798477,53.350235 
	C43.271778,50.195934 43.702568,47.324940 44.133358,44.453945 
	C44.788120,44.460567 45.442883,44.467190 46.097645,44.473812 
	C46.488892,47.358009 46.880138,50.242203 47.505276,54.850613 
	C49.449024,53.084583 51.457485,52.155312 51.641949,50.947475 
	C52.881290,42.832550 51.368942,41.011517 43.988369,40.382420 
	C43.296909,38.828621 42.679695,37.441658 41.246662,36.012337 
M114.678215,40.455811 
	C112.640556,41.295387 110.602905,42.134964 108.565247,42.974537 
	C108.704903,43.447052 108.844559,43.919563 108.984215,44.392075 
	C110.149055,44.693176 111.313896,44.994278 111.787155,45.116615 
	C110.678078,46.737068 109.194489,48.396011 108.409683,50.337437 
	C108.147957,50.984882 109.617950,53.202652 110.393959,53.255005 
	C114.725777,53.547249 119.087540,53.395477 123.696465,53.395477 
	C122.961952,50.904049 121.950371,49.198296 122.077248,47.581902 
	C122.468864,42.592476 120.145119,40.517796 114.678215,40.455811 
M72.738945,45.186909 
	C72.663063,46.167820 72.403984,47.175430 72.542397,48.125111 
	C73.209373,52.701412 76.456261,53.930176 80.465668,53.859154 
	C84.498001,53.787727 87.307167,51.859756 86.504349,47.593365 
	C86.060059,45.232300 84.505600,42.093006 82.578941,41.211269 
	C78.985985,39.566959 75.040794,40.109966 72.738945,45.186909 
M146.006409,44.392441 
	C145.874725,46.084785 145.743042,47.777130 145.599945,49.616154 
	C142.782364,48.638130 140.657272,47.900475 138.101608,47.013367 
	C137.780396,52.475723 140.707779,53.679836 144.247177,53.808170 
	C147.855637,53.939007 150.934067,52.782177 151.158279,48.460209 
	C151.329346,45.162567 151.218460,41.848984 151.176804,38.543201 
	C151.171310,38.107185 150.832687,37.675369 150.554306,37.020306 
	C149.142807,37.089344 147.744431,37.157742 146.006516,37.242744 
	C146.006516,39.543236 146.006516,41.499069 146.006409,44.392441 
M70.402435,41.090317 
	C69.682877,40.534939 68.879532,40.057995 68.266342,39.403030 
	C67.598274,38.689457 67.106590,37.810749 66.538010,37.004032 
	C65.670746,37.771294 64.768600,38.502922 63.942066,39.311794 
	C59.668217,43.494335 64.447327,47.758801 64.110748,52.015686 
	C64.083817,52.356350 67.972717,53.006622 70.041885,53.513016 
	C69.669556,52.302967 69.228882,51.108799 68.942986,49.878662 
	C68.619148,48.485256 67.981789,46.942741 68.308334,45.678890 
	C68.678741,44.245270 69.966278,43.048611 70.402435,41.090317 
M125.998398,50.152534 
	C127.885948,54.501892 129.800491,55.016754 133.791733,51.922211 
	C129.593307,48.818855 129.858887,45.501194 134.141541,42.232197 
	C132.880066,41.151569 131.966553,40.341377 131.022827,39.568031 
	C129.995773,38.726391 128.940659,37.918972 127.897781,37.096634 
	C126.735947,39.233219 125.034103,41.263618 124.586365,43.540619 
	C124.239891,45.302616 125.463181,47.373287 125.998398,50.152534 
M161.330643,45.056595 
	C162.147720,44.120827 162.964798,43.185059 163.781876,42.249290 
	C162.786362,41.772896 161.815598,40.968353 160.789993,40.891018 
	C158.879379,40.746956 156.936890,41.026108 154.438934,41.159473 
	C154.438934,44.542336 154.235687,47.829338 154.566589,51.061649 
	C154.662079,51.994137 156.294281,52.769295 157.221954,53.616581 
	C157.956604,52.756115 159.014404,52.006401 159.355515,51.011063 
	C159.976654,49.198757 160.172440,47.240677 161.330643,45.056595 
M54.516621,49.126972 
	C54.552979,50.119022 54.226845,51.695740 54.697388,51.987476 
	C55.854755,52.705032 57.378571,52.831539 58.755013,53.195751 
	C59.051380,49.226715 59.347748,45.257683 59.655407,41.137444 
	C57.488106,41.137444 56.219929,41.137444 54.517208,41.137444 
	C54.517208,43.668873 54.517208,45.965542 54.516621,49.126972 
z"/>
<path fill="#07B6CE" opacity="1.000000" stroke="none" 
	d="
M88.061050,172.362717 
	C87.242981,174.486313 86.439697,176.615738 85.604065,178.732407 
	C83.095261,185.087219 78.471024,188.535873 71.606773,188.946060 
	C64.119774,189.393478 58.676395,186.205261 55.491104,179.511581 
	C44.847961,157.145691 34.276165,134.745590 23.762259,112.318634 
	C20.024294,104.345276 21.549015,96.523666 27.548216,91.400497 
	C32.579678,87.103752 41.479034,86.314400 47.108086,90.534554 
	C50.017200,92.715561 52.350830,96.109528 54.016876,99.422005 
	C59.620598,110.563477 64.807831,121.914436 70.490555,133.766357 
	C76.571480,147.019226 82.316269,159.690964 88.061050,172.362717 
z"/>
<path fill="#FD8F1E" opacity="1.000000" stroke="none" 
	d="
M135.091812,133.504501 
	C140.292526,122.749405 145.543518,112.018257 150.680145,101.232635 
	C156.035309,89.988167 161.187759,78.646530 166.603683,67.431808 
	C170.680038,58.990894 180.144531,55.817894 188.518036,59.823975 
	C196.917603,63.842529 200.300095,72.552834 196.311508,81.143280 
	C183.724213,108.253265 170.963623,135.282867 158.246490,162.332458 
	C156.342163,166.383011 154.311371,170.374069 152.011841,174.215149 
	C150.324219,169.499664 149.371323,164.787277 147.518936,160.459930 
	C143.626862,151.367645 139.262360,142.477585 135.091812,133.504501 
z"/>
<path fill="#07B6CD" opacity="1.000000" stroke="none" 
	d="
M134.830658,133.215500 
	C139.262360,142.477585 143.626862,151.367645 147.518936,160.459930 
	C149.371323,164.787277 150.324219,169.499664 151.756104,174.520996 
	C149.198486,188.014832 135.712036,192.168442 127.477440,187.033798 
	C124.301811,185.053635 121.494423,181.688614 119.773430,178.314804 
	C113.979813,166.957077 108.750145,155.311661 103.106255,143.166595 
	C105.079872,137.919037 107.564293,133.398315 109.356918,128.618149 
	C112.747543,119.576897 119.595047,111.783630 119.297760,101.402725 
	C124.388336,111.910652 129.478912,122.418579 134.830658,133.215500 
z"/>
<path fill="#FB8F1E" opacity="1.000000" stroke="none" 
	d="
M119.180038,101.094467 
	C119.595047,111.783630 112.747543,119.576897 109.356918,128.618149 
	C107.564293,133.398315 105.079872,137.919037 102.853363,142.858643 
	C98.802879,151.479156 94.835106,159.811752 90.781105,168.102173 
	C90.150391,169.391983 89.125931,170.489258 88.172302,172.019135 
	C82.316269,159.690964 76.571480,147.019226 70.756615,134.021378 
	C76.137878,122.172165 81.770592,110.730194 86.975586,99.096870 
	C90.339157,91.579155 95.608589,87.438019 103.929123,87.925323 
	C112.089745,88.403282 116.852539,93.162285 119.180038,101.094467 
z"/>
<path fill="#FB9224" opacity="1.000000" stroke="none" 
	d="
M212.922272,49.937607 
	C211.897171,51.444820 211.050232,52.635117 209.851227,54.320183 
	C207.513916,52.149902 205.449554,50.233067 202.954254,47.916092 
	C200.562149,51.813911 198.488556,55.192745 196.355286,58.668816 
	C193.659851,55.746841 191.619858,53.535381 190.043106,51.826099 
	C188.387390,52.350651 187.022202,52.783161 185.657013,53.215668 
	C185.908432,51.713360 185.881607,50.089645 186.472488,48.735458 
	C187.519928,46.334927 188.942520,44.098083 190.298553,41.628056 
	C189.468002,41.056133 188.997635,40.604496 188.436584,40.368553 
	C186.283615,39.463184 184.101562,38.627010 181.930359,37.765018 
	C183.641663,34.257492 184.615616,28.532953 187.206863,27.671129 
	C194.116486,25.373045 196.448776,19.837065 199.820541,14.735681 
	C203.449066,9.245796 209.691345,8.273377 215.319809,6.459544 
	C216.183029,6.181364 218.452850,7.794034 218.849945,8.951508 
	C221.145432,15.642348 222.717941,22.347576 218.414673,29.066816 
	C216.143265,32.613430 214.314667,36.209721 215.940170,41.120289 
	C216.692001,43.391544 214.149399,46.753330 212.922272,49.937607 
M203.942093,27.515215 
	C208.181870,30.121244 212.016724,28.983561 211.959717,24.971376 
	C211.939697,23.562157 210.933212,21.488962 209.794006,20.948734 
	C208.432205,20.302959 205.675690,20.325397 204.910873,21.230682 
	C203.785995,22.562168 203.889328,24.931307 203.942093,27.515215 
z"/>
<path fill="#18B8CF" opacity="1.000000" stroke="none" 
	d="
M75.000000,65.069565 
	C54.542168,65.069588 34.584335,65.069588 14.626504,65.069588 
	C14.285452,64.671928 13.944399,64.274277 13.603347,63.876617 
	C14.602754,62.934391 15.579926,61.966228 16.621593,61.073307 
	C16.814342,60.908089 17.267452,61.045143 17.600393,61.045139 
	C65.045792,61.044781 112.491226,61.027771 159.936417,61.125298 
	C161.372986,61.128254 162.807114,62.327141 164.242371,62.968452 
	C164.052887,63.668819 163.863388,64.369186 163.673904,65.069550 
	C134.282608,65.069550 104.891304,65.069550 75.000000,65.069565 
z"/>
<path fill="#1FBAD1" opacity="1.000000" stroke="none" 
	d="
M16.852367,36.991653 
	C18.458563,39.347576 19.656876,41.691212 20.872936,44.069565 
	C21.352369,42.123631 21.912287,39.851032 22.559469,37.224228 
	C24.109650,37.141468 25.703747,37.056366 27.640558,36.952969 
	C28.255039,39.327595 28.817165,41.499901 29.648952,44.714287 
	C30.466726,41.722290 31.020731,39.695347 31.695629,37.226093 
	C33.122200,37.154793 34.691875,37.076344 36.882214,36.966873 
	C35.711571,42.072086 35.022972,46.827335 33.388691,51.231674 
	C32.832581,52.730377 29.894945,53.345390 27.695719,54.556892 
	C26.667549,51.113335 26.032196,48.985409 25.008942,45.558319 
	C23.987684,48.914810 23.344805,51.027710 22.713177,53.103638 
	C18.174425,54.838310 16.285357,53.091148 15.725087,48.544167 
	C15.281037,44.940380 14.098512,41.427589 13.152092,37.492718 
	C14.345568,37.306629 15.395026,37.142998 16.852367,36.991653 
z"/>
<path fill="#24BCD2" opacity="1.000000" stroke="none" 
	d="
M104.013046,36.992744 
	C104.953423,38.556026 105.796165,40.081028 105.883797,41.648254 
	C106.094772,45.421375 105.952141,49.214272 105.952141,53.240269 
	C102.882568,53.717243 100.288651,54.615551 100.304314,50.140911 
	C100.317932,46.251648 97.619148,47.451576 95.222740,47.626770 
	C95.013351,49.483490 94.830933,51.101017 94.584839,53.283218 
	C93.153099,53.412334 91.613129,53.551212 89.629822,53.730072 
	C89.629822,48.144321 89.629822,42.942863 89.629822,37.279518 
	C91.074219,37.172108 92.625519,37.056747 94.427246,36.922764 
	C94.710838,38.987247 94.949799,40.726818 95.218895,42.685783 
	C96.860344,42.685783 98.426201,42.685783 99.820343,42.685783 
	C101.124321,40.560055 98.752365,36.400024 104.013046,36.992744 
z"/>
<path fill="#29BDD3" opacity="1.000000" stroke="none" 
	d="
M41.654572,36.033516 
	C42.679695,37.441658 43.296909,38.828621 43.988369,40.382420 
	C51.368942,41.011517 52.881290,42.832550 51.641949,50.947475 
	C51.457485,52.155312 49.449024,53.084583 47.505276,54.850613 
	C46.880138,50.242203 46.488892,47.358009 46.097645,44.473812 
	C45.442883,44.467190 44.788120,44.460567 44.133358,44.453945 
	C43.702568,47.324940 43.271778,50.195934 42.798477,53.350235 
	C41.469799,53.350235 40.099758,53.350235 38.259464,53.350235 
	C38.259464,48.115097 38.126652,43.175762 38.393269,38.258087 
	C38.436523,37.460281 40.250931,36.758503 41.654572,36.033516 
z"/>
<path fill="#23BCD2" opacity="1.000000" stroke="none" 
	d="
M115.066681,40.447735 
	C120.145119,40.517796 122.468864,42.592476 122.077248,47.581902 
	C121.950371,49.198296 122.961952,50.904049 123.696465,53.395477 
	C119.087540,53.395477 114.725777,53.547249 110.393959,53.255005 
	C109.617950,53.202652 108.147957,50.984882 108.409683,50.337437 
	C109.194489,48.396011 110.678078,46.737068 111.787155,45.116615 
	C111.313896,44.994278 110.149055,44.693176 108.984215,44.392075 
	C108.844559,43.919563 108.704903,43.447052 108.565247,42.974537 
	C110.602905,42.134964 112.640556,41.295387 115.066681,40.447735 
z"/>
<path fill="#1FBAD1" opacity="1.000000" stroke="none" 
	d="
M72.836143,44.827515 
	C75.040794,40.109966 78.985985,39.566959 82.578941,41.211269 
	C84.505600,42.093006 86.060059,45.232300 86.504349,47.593365 
	C87.307167,51.859756 84.498001,53.787727 80.465668,53.859154 
	C76.456261,53.930176 73.209373,52.701412 72.542397,48.125111 
	C72.403984,47.175430 72.663063,46.167820 72.836143,44.827515 
z"/>
<path fill="#FE901F" opacity="1.000000" stroke="none" 
	d="
M146.006470,43.923672 
	C146.006516,41.499069 146.006516,39.543236 146.006516,37.242744 
	C147.744431,37.157742 149.142807,37.089344 150.554306,37.020306 
	C150.832687,37.675369 151.171310,38.107185 151.176804,38.543201 
	C151.218460,41.848984 151.329346,45.162567 151.158279,48.460209 
	C150.934067,52.782177 147.855637,53.939007 144.247177,53.808170 
	C140.707779,53.679836 137.780396,52.475723 138.101608,47.013367 
	C140.657272,47.900475 142.782364,48.638130 145.599945,49.616154 
	C145.743042,47.777130 145.874725,46.084785 146.006470,43.923672 
z"/>
<path fill="#1FBAD1" opacity="1.000000" stroke="none" 
	d="
M70.628754,41.419624 
	C69.966278,43.048611 68.678741,44.245270 68.308334,45.678890 
	C67.981789,46.942741 68.619148,48.485256 68.942986,49.878662 
	C69.228882,51.108799 69.669556,52.302967 70.041885,53.513016 
	C67.972717,53.006622 64.083817,52.356350 64.110748,52.015686 
	C64.447327,47.758801 59.668217,43.494335 63.942066,39.311794 
	C64.768600,38.502922 65.670746,37.771294 66.538010,37.004032 
	C67.106590,37.810749 67.598274,38.689457 68.266342,39.403030 
	C68.879532,40.057995 69.682877,40.534939 70.628754,41.419624 
z"/>
<path fill="#22BBD2" opacity="1.000000" stroke="none" 
	d="
M125.993515,49.729637 
	C125.463181,47.373287 124.239891,45.302616 124.586365,43.540619 
	C125.034103,41.263618 126.735947,39.233219 127.897781,37.096634 
	C128.940659,37.918972 129.995773,38.726391 131.022827,39.568031 
	C131.966553,40.341377 132.880066,41.151569 134.141541,42.232197 
	C129.858887,45.501194 129.593307,48.818855 133.791733,51.922211 
	C129.800491,55.016754 127.885948,54.501892 125.993515,49.729637 
z"/>
<path fill="#FE9428" opacity="1.000000" stroke="none" 
	d="
M160.938171,45.200008 
	C160.172440,47.240677 159.976654,49.198757 159.355515,51.011063 
	C159.014404,52.006401 157.956604,52.756115 157.221954,53.616581 
	C156.294281,52.769295 154.662079,51.994137 154.566589,51.061649 
	C154.235687,47.829338 154.438934,44.542336 154.438934,41.159473 
	C156.936890,41.026108 158.879379,40.746956 160.789993,40.891018 
	C161.815598,40.968353 162.786362,41.772896 163.781876,42.249290 
	C162.964798,43.185059 162.147720,44.120827 160.938171,45.200008 
z"/>
<path fill="#1AB9D0" opacity="1.000000" stroke="none" 
	d="
M54.516914,48.694595 
	C54.517208,45.965542 54.517208,43.668873 54.517208,41.137444 
	C56.219929,41.137444 57.488106,41.137444 59.655407,41.137444 
	C59.347748,45.257683 59.051380,49.226715 58.755013,53.195751 
	C57.378571,52.831539 55.854755,52.705032 54.697388,51.987476 
	C54.226845,51.695740 54.552979,50.119022 54.516914,48.694595 
z"/>
<path fill="#FAF2E5" opacity="1.000000" stroke="none" 
	d="
M203.705780,27.186817 
	C203.889328,24.931307 203.785995,22.562168 204.910873,21.230682 
	C205.675690,20.325397 208.432205,20.302959 209.794006,20.948734 
	C210.933212,21.488962 211.939697,23.562157 211.959717,24.971376 
	C212.016724,28.983561 208.181870,30.121244 203.705780,27.186817 
z"/>
</svg>